Coordinates
version=1
nRows=17
nColumns=24
inDegrees=yes

Units are S.I. units (second, meters, Newtons, ...)
Angles are in degrees.

endheader
time	pelvis_tilt	pelvis_list	pelvis_rotation	pelvis_tx	pelvis_ty	pelvis_tz	hip_flexion_r	hip_adduction_r	hip_rotation_r	knee_angle_r	ankle_angle_r	subtalar_angle_r	mtp_angle_r	hip_flexion_l	hip_adduction_l	hip_rotation_l	knee_angle_l	ankle_angle_l	subtalar_angle_l	mtp_angle_l	lumbar_extension	lumbar_bending	lumbar_rotation
      4.31000000	     -9.81929780	      2.29117100	      0.65671714	     -1.95140399	     -0.00955444	      0.41503293	     34.41985423	     -3.79436427	     -7.11956837	    -43.07760489	    -12.85847709	    -18.12972652	      5.52752952	      3.75439350	      5.55409629	      9.93483540	     -4.94358308	      1.03779668	      1.17478316	      4.83824077	      7.75225882	     -2.84193603	     -6.01764314
      4.31500000	     -9.86787462	      2.12988456	      1.00263855	     -1.94642263	     -0.00989976	      0.41479815	     34.52426193	     -3.78522024	     -7.55515657	    -41.23090415	    -12.40507299	    -17.19252367	      6.04470717	      3.43565920	      5.40474897	     10.18290214	     -4.90446544	      1.28410695	      1.25803683	      4.83483275	      7.69590599	     -2.77081346	     -6.27875168
      4.32000000	     -9.91709513	      1.97540579	      1.33532677	     -1.94143430	     -0.01028268	      0.41460617	     34.59266578	     -3.77412107	     -7.96615312	    -39.32785279	    -11.94252963	    -16.17268563	      6.55848422	      3.13190925	      5.25901656	     10.40569078	     -4.89170466	      1.55009648	      1.35113798	      4.83259099	      7.63991900	     -2.70617944	     -6.50696146
      4.32500000	     -9.96223344	      1.82975837	      1.66589653	     -1.93641629	     -0.01068682	      0.41444334	     34.61999865	     -3.77353284	     -8.37546217	    -37.38088029	    -11.47448821	    -15.05591909	      7.06038513	      2.83377244	      5.11984236	     10.60726808	     -4.89978819	      1.82743936	      1.46589937	      4.83611871	      7.58370074	     -2.65274261	     -6.71282853
      4.33000000	     -9.99907103	      1.69774029	      1.98961554	     -1.93138188	     -0.01110536	      0.41427812	     34.60442736	     -3.78827895	     -8.77984599	    -35.39891117	    -11.01840370	    -13.87112292	      7.51491116	      2.53910741	      4.99617947	     10.77222223	     -4.93101767	      2.10097395	      1.59321946	      4.83909267	      7.52058534	     -2.60661026	     -6.90403821
      4.33500000	    -10.01765132	      1.57842985	      2.31929428	     -1.92630845	     -0.01152805	      0.41411960	     34.53210661	     -3.82213854	     -9.19206663	    -33.39371042	    -10.56624020	    -12.61169083	      7.91863634	      2.23702338	      4.88732570	     10.91269346	     -4.99083361	      2.38733656	      1.72750248	      4.84387531	      7.43973118	     -2.57211587	     -7.10296709
      4.34000000	    -10.02537849	      1.47709410	      2.64375231	     -1.92122255	     -0.01196822	      0.41398925	     34.41846191	     -3.87230807	     -9.60809296	    -31.37560583	    -10.13750807	    -11.33831196	      8.23764137	      1.93538859	      4.79537595	     11.03510917	     -5.07604756	      2.66801301	      1.86438488	      4.85233530	      7.34941359	     -2.55502193	     -7.27900542
      4.34500000	     -9.97890919	      1.37533156	      2.96943404	     -1.91605845	     -0.01235820	      0.41387924	     34.20709983	     -3.92311334	    -10.06250641	    -29.35324467	     -9.71579566	    -10.01867172	      8.37083578	      1.56734111	      4.69388802	     11.18207754	     -5.16302403	      2.96785265	      2.02454034	      4.79393003	      7.21059227	     -2.53438699	     -7.42526706
      4.35000000	    -10.00998822	      1.32011222	      3.28676438	     -1.91087745	     -0.01286466	      0.41375068	     34.06635068	     -4.03173443	    -10.55273370	    -27.34155681	     -9.37021868	     -8.74197243	      8.63448723	      1.30460678	      4.65421083	     11.24422557	     -5.28210782	      3.20283252	      2.15158881	      4.86512433	      7.15824072	     -2.55616057	     -7.56051188
      4.35500000	     -9.98017982	      1.26216470	      3.61636505	     -1.90563499	     -0.01331099	      0.41364180	     33.82154193	     -4.13965641	    -11.09084883	    -25.33443511	     -9.04103296	     -7.45949973	      8.77645554	      0.97270294	      4.60080124	     11.33689221	     -5.40656510	      3.44694200	      2.29041200	      4.91323004	      7.04894606	     -2.57328615	     -7.70037355
      4.36000000	     -9.94219133	      1.21773175	      3.93645047	     -1.90033704	     -0.01375949	      0.41357818	     33.54441661	     -4.25219049	    -11.67478491	    -23.34958189	     -8.74844071	     -6.21093138	      8.84670993	      0.63512413	      4.55534274	     11.41383664	     -5.54428658	      3.67147358	      2.42895848	      4.96273522	      6.93726020	     -2.60410805	     -7.82084790
      4.36500000	     -9.89020551	      1.18415329	      4.25379331	     -1.89498802	     -0.01420424	      0.41352933	     33.23052337	     -4.36981317	    -12.30298295	    -21.39607071	     -8.47975865	     -4.98099203	      8.86086298	      0.28544719	      4.51431831	     11.49023884	     -5.69569082	      3.89106900	      2.58129084	      5.02709344	      6.81870291	     -2.64055325	     -7.93016513
      4.37000000	     -9.86413676	      1.14479028	      4.53538415	     -1.88955505	     -0.01468141	      0.41355775	     32.93368739	     -4.45659323	    -12.97191704	    -19.48260050	     -8.28358326	     -3.80357799	      8.85601619	     -0.04139227	      4.45610273	     11.55785578	     -5.84620811	      4.09801094	      2.74204160	      5.12283971	      6.74336393	     -2.66824247	     -7.96336392
      4.37500000	     -9.76661494	      1.14268334	      4.87137052	     -1.88411670	     -0.01508357	      0.41355188	     32.53321942	     -4.59338998	    -13.66587385	    -17.62242141	     -8.00644844	     -2.59968671	      8.79608033	     -0.42447013	      4.42962230	     11.61225584	     -6.03617185	      4.29684010	      2.95923665	      5.24771312	      6.58873597	     -2.73543376	     -8.12777871
      4.38000000	     -9.69974984	      1.13029267	      5.16913472	     -1.87859606	     -0.01551870	      0.41363607	     32.16365843	     -4.68761197	    -14.36294717	    -15.82635339	     -7.78582101	     -1.43472536	      8.70508153	     -0.77918040	      4.37758056	     11.66883962	     -6.22503719	      4.48969081	      3.20025084	      5.41583219	      6.48260538	     -2.79101313	     -8.21149814
      4.38500000	     -9.67172767	      1.09980313	      5.43693554	     -1.87298783	     -0.01598510	      0.41378380	     31.83461439	     -4.73666443	    -15.06076294	    -14.09670931	     -7.64235600	     -0.33743329	      8.62580172	     -1.09065575	      4.29620802	     11.71365379	     -6.41961158	      4.67024982	      3.46523358	      5.63615994	      6.43673929	     -2.82501120	     -8.24565805
      4.39000000	     -9.61296797	      1.09064204	      5.73488735	     -1.86736423	     -0.01641086	      0.41395303	     31.46093888	     -4.80304080	    -15.70492682	    -12.44761191	     -7.45465035	      0.75820834	      8.53359558	     -1.41455179	      4.22422024	     11.75469729	     -6.65115308	      4.84673858	      3.80029954	      5.92360566	      6.35706938	     -2.88834905	     -8.34957691
